{"title":"The Croods 2013 TS XVID AC3 BHRG","uid":8310738,"size":665048583,"categoryP":"video","categoryS":"movies","magnet":"?xt=urn:btih:3fe7e49fd34ab883dc38cbf0a290627508a44553&amp;dn=The+Croods+2013+TS+XVID+AC3+BHRG&amp;tr=udp%3A%2F%2Ftracker.openbittorrent.com%3A80&amp;tr=udp%3A%2F%2Fopen.demonii.com%3A1337&amp;tr=udp%3A%2F%2Ftracker.coppersurfer.tk%3A6969&amp;tr=udp%3A%2F%2Fexodus.desync.com%3A6969","seeders":2,"leechers":0,"uploader":"Gh0stNet","files":3,"time":1364429754,"description":"Format                                   : AVI\nFormat/Info                              : Audio Video Interleave\nFile size                                : 628 MiB\nDuration                                 : 1h 29mn\nOverall bit rate                         : 981 Kbps\nWriting library                          : VirtualDub build 30091/release\n\nVideo\nID                                       : 0\nFormat                                   : MPEG-4 Visual\nFormat profile                           : Advanced Simple@L5\nFormat settings, BVOP                    : 2\nFormat settings, QPel                    : No\nFormat settings, GMC                     : No warppoints\nFormat settings, Matrix                  : Default (H.263)\nMuxing mode                              : Packed bitstream\nCodec ID                                 : XVID\nCodec ID/Hint                            : XviD\nDuration                                 : 1h 29mn\nBit rate                                 : 843 Kbps\nWidth                                    : 640 pixels\nHeight                                   : 272 pixels\nDisplay aspect ratio                     : 2.35:1\nFrame rate                               : 25.000 fps\nColor space                              : YUV\nChroma subsampling                       : 4:2:0\nBit depth                                : 8 bits\nScan type                                : Progressive\nCompression mode                         : Lossy\nBits/(Pixel*Frame)                       : 0.194\nStream size                              : 540 MiB (86%)\nWriting library                          : XviD 1.2.1 (UTC 2008-12-04)\n\nAudio\nID                                       : 1\nFormat                                   : AC-3\nFormat/Info                              : Audio Coding 3\nMode extension                           : CM (complete main)\nFormat settings, Endianness              : Big\nCodec ID                                 : 2000\nDuration                                 : 1h 29mn\nBit rate mode                            : Constant\nBit rate                                 : 128 Kbps\nChannel(s)                               : 2 channels\nChannel positions                        : Front: L R\nSampling rate                            : 48.0 KHz\nBit depth                                : 16 bits\nCompression mode                         : Lossy\nStream size                              : 82.0 MiB (13%)\n\nScreens: &lt;a href=&quot;\nhttp://i.imgur.com/Hkvbr1Z.png&quot; rel=&quot;nofollow&quot; target=&quot;_NEW&quot;&gt;\nhttp://i.imgur.com/Hkvbr1Z.png&lt;/a&gt; &lt;a href=&quot;\nhttp://i.imgur.com/byIElYu.png&quot; rel=&quot;nofollow&quot; target=&quot;_NEW&quot;&gt;\nhttp://i.imgur.com/byIElYu.png&lt;/a&gt; &lt;a href=&quot;\nhttp://i.imgur.com/LEHPTCH.png&quot; rel=&quot;nofollow&quot; target=&quot;_NEW&quot;&gt;\nhttp://i.imgur.com/LEHPTCH.png&lt;/a&gt; &lt;a href=&quot;\nhttp://i.imgur.com/qDdaByY.png&quot; rel=&quot;nofollow&quot; target=&quot;_NEW&quot;&gt;\nhttp://i.imgur.com/qDdaByY.png&lt;/a&gt;","torrent":{"xt":"urn:btih:3fe7e49fd34ab883dc38cbf0a290627508a44553","amp;dn":"The+Croods+2013+TS+XVID+AC3+BHRG","amp;tr":["udp%3A%2F%2Ftracker.openbittorrent.com%3A80","udp%3A%2F%2Fopen.demonii.com%3A1337","udp%3A%2F%2Ftracker.coppersurfer.tk%3A6969","udp%3A%2F%2Fexodus.desync.com%3A6969"],"infoHash":"3fe7e49fd34ab883dc38cbf0a290627508a44553","infoHashBuffer":{"type":"Buffer","data":[63,231,228,159,211,74,184,131,220,56,203,240,162,144,98,117,8,164,69,83]},"announce":[],"urlList":[]}}